<?xml version="1.0" ?><svg id="Icons" viewBox="0 0 24 24" xmlns="http://www.w3.org/2000/svg"><defs><style>.cls-1{fill:#232323;}</style></defs><path class="cls-1" d="M14,6V2.01c.06.05.12.11.17.16l5.66,5.66c.05.05.11.11.16.17H16A2.006,2.006,0,0,1,14,6Z"/><path class="cls-1" d="M20.94,10H16a4,4,0,0,1-4-4V1.06A3.683,3.683,0,0,0,11.34,1H6A3,3,0,0,0,3,4V20a3,3,0,0,0,3,3H18a3,3,0,0,0,3-3V10.66A3.683,3.683,0,0,0,20.94,10ZM7,14h4a1,1,0,0,1,0,2H7a1,1,0,0,1,0-2Zm10,6H7a1,1,0,0,1,0-2H17a1,1,0,0,1,0,2Z"/></svg>