<?xml version="1.0" ?><svg id="Icons" viewBox="0 0 24 24" xmlns="http://www.w3.org/2000/svg"><defs><style>.cls-1{fill:#232323;}</style></defs><path class="cls-1" d="M8,1h8a2,2,0,0,1,2,2V4a0,0,0,0,1,0,0H6A0,0,0,0,1,6,4V3A2,2,0,0,1,8,1Z"/><path class="cls-1" d="M7,17H17a0,0,0,0,1,0,0v4a2,2,0,0,1-2,2H9a2,2,0,0,1-2-2V17A0,0,0,0,1,7,17Z"/><path class="cls-1" d="M20,6H4A3,3,0,0,0,1,9v8a3,3,0,0,0,3,3H5V17a1,1,0,0,1,0-2H19a1,1,0,0,1,0,2v3h1a3,3,0,0,0,3-3V9A3,3,0,0,0,20,6ZM6,11H5A1,1,0,0,1,5,9H6a1,1,0,0,1,0,2Zm5,0H10a1,1,0,0,1,0-2h1a1,1,0,0,1,0,2Z"/></svg>